<svg xmlns="http://www.w3.org/2000/svg" viewBox="0 0 300 300">
	<g opacity="0.7">
		<path d="M505,265a99,99,0,1,1,99-99A99.11,99.11,0,0,1,505,265Z" transform="translate(-352 -66)" fill="red" />
		<path d="M505,68a98,98,0,1,1-98,98,98.11,98.11,0,0,1,98-98m0-2A100,100,0,1,0,605,166,100,100,0,0,0,505,66Z" transform="translate(-352 -66)"
		/>
	</g>
	<g opacity="0.72">
		<path d="M452,365a99,99,0,1,1,99-99A99.11,99.11,0,0,1,452,365Z" transform="translate(-352 -66)" fill="lime" />
		<path d="M452,168a98,98,0,1,1-98,98,98.11,98.11,0,0,1,98-98m0-2A100,100,0,1,0,552,266,100,100,0,0,0,452,166Z" transform="translate(-352 -66)"
		/>
	</g>
	<g opacity="0.7">
		<path d="M552,365a99,99,0,1,1,99-99A99.11,99.11,0,0,1,552,365Z" transform="translate(-352 -66)" fill="blue" />
		<path d="M552,168a98,98,0,1,1-98,98,98.11,98.11,0,0,1,98-98m0-2A100,100,0,1,0,652,266,100,100,0,0,0,552,166Z" transform="translate(-352 -66)"
		/>
	</g>
</svg>